<svg xmlns="http://www.w3.org/2000/svg" viewBox="0 0 240 64" fill="none" role="img" aria-label="Suzuki">
  <path d="M78 18c-8 0-14 3-18 7l10 8c2-2 5-3 8-3 4 0 6 1.5 6 4s-2 4-8 4h-8v10h8c12 0 20-5 20-14 0-10-8-16-18-16zm-34 28c8 0 14-3 18-7l-10-8c-2 2-5 3-8 3-4 0-6-1.5-6-4s2-4 8-4h8V16h-8c-12 0-20 5-20 14 0 10 8 16 18 16z" fill="#111827"/>
  <text x="158" y="42" text-anchor="middle" font-family="Arial, Helvetica, sans-serif" font-size="26" font-weight="700" letter-spacing="0.1em" fill="#111827">SUZUKI</text>
</svg>
